<svg width="162" height="47" viewBox="0 0 162 47" fill="none" xmlns="http://www.w3.org/2000/svg">
<g clip-path="url(#clip0_297_10143)">
<path d="M140.565 22.0878C142.629 22.0878 143.424 23.3504 143.535 24.4498C143.537 24.4663 143.535 24.4831 143.529 24.4989C143.524 24.5147 143.515 24.5292 143.504 24.5415C143.493 24.5538 143.479 24.5636 143.464 24.5703C143.449 24.577 143.432 24.5804 143.416 24.5803H137.749C137.732 24.5803 137.715 24.5767 137.7 24.5697C137.684 24.5628 137.671 24.5526 137.659 24.5399C137.648 24.5272 137.64 24.5123 137.635 24.4961C137.63 24.4799 137.628 24.4628 137.63 24.446C137.783 23.3718 138.735 22.0878 140.565 22.0878ZM143.671 29.0777C143.633 29.0775 143.596 29.0862 143.563 29.1033C143.529 29.1203 143.5 29.1451 143.478 29.1756C142.967 29.8954 142.135 30.3393 140.893 30.3393C139.182 30.3393 137.697 29.2147 137.536 27.6211C137.535 27.6046 137.537 27.588 137.542 27.5722C137.547 27.5565 137.556 27.542 137.567 27.5297C137.578 27.5175 137.591 27.5076 137.607 27.5009C137.622 27.4941 137.638 27.4906 137.655 27.4906H147.837C147.865 27.4011 147.925 26.7185 147.925 26.0947C147.925 21.3465 145.094 18.5266 140.505 18.5266C136.662 18.5266 133.115 21.5535 133.115 26.3026C133.115 31.2597 136.751 34.1681 140.834 34.1681C144.523 34.1681 146.861 32.1036 147.619 29.6082C147.624 29.5933 147.649 29.5001 147.677 29.3639C147.684 29.3293 147.684 29.2935 147.675 29.2591C147.667 29.2248 147.651 29.1927 147.629 29.1653C147.606 29.1379 147.578 29.1158 147.546 29.1006C147.514 29.0854 147.479 29.0776 147.444 29.0777H143.671V29.0777ZM152.674 26.2271L147.847 19.3454C147.822 19.3096 147.807 19.2678 147.804 19.2243C147.802 19.1809 147.811 19.1375 147.831 19.0989C147.851 19.0603 147.882 19.028 147.919 19.0055C147.956 18.9831 147.999 18.9713 148.043 18.9714H152.789C152.87 18.9714 152.945 19.0115 152.989 19.0787L155.47 22.8552C155.516 22.927 155.623 22.9261 155.669 22.8533L158.093 19.0815C158.114 19.0477 158.144 19.02 158.179 19.0008C158.214 18.9815 158.253 18.9714 158.293 18.9714H162.767C162.961 18.9714 163.074 19.1887 162.963 19.3463L158.2 26.0471C158.172 26.087 158.156 26.1346 158.156 26.1836C158.156 26.2325 158.171 26.2803 158.199 26.3203C159.758 28.5396 161.54 31.1039 163.139 33.3484C163.251 33.506 163.139 33.7223 162.946 33.7223H158.232C158.192 33.7225 158.153 33.7129 158.119 33.6943C158.084 33.6758 158.054 33.6489 158.032 33.616L155.46 29.7164C155.45 29.7001 155.435 29.6867 155.417 29.6774C155.4 29.6681 155.381 29.6633 155.361 29.6633C155.342 29.6633 155.322 29.6681 155.305 29.6774C155.288 29.6867 155.273 29.7001 155.262 29.7164C154.492 30.8615 153.485 32.456 152.721 33.616C152.699 33.6489 152.669 33.6759 152.635 33.6944C152.6 33.713 152.561 33.7226 152.521 33.7223H148.127C148.084 33.7226 148.041 33.7109 148.004 33.6886C147.967 33.6663 147.937 33.6342 147.916 33.5958C147.896 33.5574 147.887 33.5142 147.89 33.4709C147.892 33.4276 147.907 33.3859 147.932 33.3503L152.675 26.4975C152.703 26.4578 152.718 26.4106 152.718 26.3623C152.718 26.3139 152.703 26.2668 152.675 26.2271H152.674ZM127.096 33.4855V12.472C127.096 12.3405 127.203 12.2342 127.335 12.2342H131.388C131.519 12.2342 131.626 12.3405 131.626 12.472V33.4855C131.626 33.616 131.519 33.7223 131.388 33.7223H127.335C127.304 33.7225 127.273 33.7164 127.244 33.7046C127.215 33.6928 127.189 33.6754 127.167 33.6534C127.144 33.6314 127.127 33.6052 127.115 33.5764C127.103 33.5476 127.096 33.5167 127.096 33.4855V33.4855ZM120.422 33.4855V12.472C120.422 12.3405 120.529 12.2342 120.66 12.2342H124.713C124.844 12.2342 124.951 12.3405 124.951 12.472V33.4855C124.951 33.616 124.844 33.7223 124.713 33.7223H120.66C120.629 33.7225 120.598 33.7164 120.569 33.7046C120.54 33.6928 120.514 33.6754 120.492 33.6534C120.47 33.6314 120.452 33.6052 120.44 33.5764C120.428 33.5476 120.422 33.5167 120.422 33.4855V33.4855ZM110.399 30.2498C112.218 30.2498 113.766 28.8259 113.766 26.3324C113.766 23.7802 112.246 22.444 110.399 22.444C108.462 22.444 107.002 23.7802 107.002 26.3324C107.002 28.7662 108.522 30.2507 110.399 30.2507V30.2498ZM113.796 31.8229C113.141 33.2477 111.652 34.1382 109.803 34.1382C105.452 34.1382 102.443 30.8438 102.443 26.3026C102.443 21.9106 105.274 18.5257 109.654 18.5257C112.306 18.5257 113.468 19.9804 113.766 20.6629V19.2083C113.766 19.0777 113.873 18.9714 114.005 18.9714H117.909C118.039 18.9714 118.146 19.0777 118.146 19.2092V33.4855C118.146 33.616 118.04 33.7223 117.909 33.7223H114.008C113.976 33.7224 113.945 33.7161 113.916 33.704C113.887 33.6919 113.861 33.6741 113.839 33.6517C113.817 33.6293 113.799 33.6028 113.787 33.5736C113.776 33.5445 113.77 33.5132 113.77 33.4818C113.778 32.9456 113.796 31.7063 113.796 31.8229V31.8229ZM92.7782 19.1346L95.4926 27.3572C95.5299 27.4691 95.6884 27.4654 95.7201 27.3526L98.0392 19.1449C98.0533 19.0949 98.0833 19.0509 98.1247 19.0195C98.1661 18.9882 98.2167 18.9713 98.2686 18.9714H102.204C102.365 18.9714 102.48 19.1262 102.432 19.2791L97.9907 33.5554C97.9758 33.6041 97.9456 33.6466 97.9046 33.6768C97.8637 33.7071 97.8141 33.7233 97.7632 33.7233H93.6109C93.561 33.7232 93.5124 33.7075 93.472 33.6784C93.4315 33.6493 93.4012 33.6082 93.3852 33.561L90.336 24.5327C90.2987 24.4246 90.1448 24.4255 90.1094 24.5327L87.1161 33.5592C87.1004 33.6066 87.0702 33.648 87.0297 33.6772C86.9892 33.7065 86.9405 33.7223 86.8905 33.7223H82.6486C82.598 33.7224 82.5487 33.7063 82.5078 33.6765C82.4669 33.6467 82.4365 33.6046 82.4211 33.5564L77.9219 19.2801C77.9107 19.2444 77.9082 19.2067 77.9143 19.1698C77.9205 19.133 77.9353 19.0982 77.9574 19.0681C77.9796 19.0381 78.0085 19.0136 78.0419 18.9968C78.0752 18.98 78.112 18.9713 78.1494 18.9714H82.353C82.4593 18.9714 82.5535 19.0423 82.5824 19.1449L84.9015 27.3265C84.9332 27.4384 85.0917 27.4421 85.129 27.3311L87.8724 19.1346C87.8882 19.0871 87.9186 19.0457 87.9593 19.0164C88 18.9871 88.0488 18.9714 88.099 18.9714H92.5516C92.6541 18.9714 92.7464 19.0367 92.7782 19.1346V19.1346ZM76.6929 23.1322C76.6928 23.1668 76.6852 23.2011 76.6705 23.2325C76.6559 23.264 76.6345 23.2918 76.6079 23.3141C76.5814 23.3364 76.5503 23.3526 76.5168 23.3616C76.4833 23.3706 76.4482 23.3722 76.414 23.3662C76.0336 23.3019 75.6482 23.2713 75.2624 23.2748C73.4441 23.2748 71.8057 24.3435 71.8057 27.2817V33.4855C71.8057 33.616 71.6994 33.7223 71.5679 33.7223H67.5154C67.4841 33.7225 67.4532 33.7164 67.4243 33.7046C67.3954 33.6928 67.3691 33.6754 67.347 33.6534C67.3248 33.6314 67.3072 33.6052 67.2951 33.5764C67.283 33.5476 67.2768 33.5167 67.2767 33.4855V19.2092C67.2767 19.0787 67.383 18.9714 67.5154 18.9714H71.4187C71.5502 18.9714 71.6565 19.0777 71.6565 19.2092V20.9604C72.4314 19.2978 74.3094 18.8232 75.5011 18.8232C75.8629 18.8232 76.2247 18.8623 76.5073 18.9239C76.6164 18.9481 76.6929 19.0451 76.6929 19.1561V23.1322ZM60.5124 33.4855V19.2092C60.5124 19.0787 60.6197 18.9714 60.7512 18.9714H64.8037C64.9352 18.9714 65.0424 19.0777 65.0424 19.2092V33.4855C65.0424 33.616 64.9352 33.7223 64.8037 33.7223H60.7512C60.7199 33.7225 60.689 33.7164 60.6601 33.7046C60.6312 33.6928 60.6049 33.6754 60.5827 33.6534C60.5606 33.6314 60.543 33.6052 60.5309 33.5764C60.5188 33.5476 60.5126 33.5167 60.5124 33.4855ZM62.7476 11.8184C64.2377 11.8184 65.4294 13.0054 65.4294 14.4601C65.4294 15.9148 64.2377 17.1018 62.7476 17.1018C61.3172 17.1018 60.1255 15.9148 60.1255 14.4601C60.1255 13.0054 61.3172 11.8184 62.7476 11.8184V11.8184ZM46.0804 25.1743H50.8696C50.9517 25.1743 51.0095 25.0941 50.9815 25.0167L48.6168 18.2226C48.6088 18.1991 48.5936 18.1787 48.5735 18.1642C48.5533 18.1497 48.5291 18.1418 48.5043 18.1417C48.4794 18.1416 48.4552 18.1493 48.4349 18.1636C48.4146 18.178 48.3993 18.1983 48.3911 18.2217L45.9695 25.0167C45.9415 25.0932 45.9993 25.1752 46.0814 25.1752L46.0804 25.1743ZM52.3588 29.4488H44.5306C44.4815 29.4489 44.4337 29.4641 44.3936 29.4925C44.3535 29.5209 44.3232 29.561 44.3068 29.6073L42.8988 33.5648C42.8824 33.6112 42.8519 33.6514 42.8117 33.6798C42.7714 33.7082 42.7233 33.7234 42.6741 33.7233H38.2411C38.2025 33.7235 38.1644 33.7143 38.1302 33.6966C38.096 33.6788 38.0666 33.653 38.0445 33.6213C38.0225 33.5896 38.0085 33.5531 38.0038 33.5148C37.999 33.4765 38.0036 33.4377 38.0173 33.4016L45.7942 12.8329C45.8112 12.7876 45.8417 12.7486 45.8815 12.7211C45.9214 12.6936 45.9686 12.679 46.017 12.679H51.1401C51.2389 12.679 51.3284 12.7406 51.3629 12.8338L59.0522 33.4025C59.0654 33.4385 59.0697 33.4772 59.0648 33.5152C59.0599 33.5532 59.0458 33.5895 59.0238 33.6209C59.0018 33.6523 58.9726 33.6779 58.9386 33.6956C58.9045 33.7133 58.8667 33.7224 58.8284 33.7223H54.2154C54.1662 33.7223 54.1181 33.7071 54.0779 33.6787C54.0377 33.6503 54.0072 33.6102 53.9907 33.5638L52.5826 29.6073C52.5661 29.5611 52.5358 29.5211 52.4958 29.4927C52.4557 29.4643 52.4079 29.449 52.3588 29.4488V29.4488Z" fill="#A05BF8"/>
<path fill-rule="evenodd" clip-rule="evenodd" d="M32.2772 20.5737C32.8572 21.1383 33.2595 21.8602 33.4347 22.6504C33.6098 23.4407 33.5501 24.2649 33.2628 25.0217L31.0743 30.9672C30.4999 32.5281 29.1907 33.7357 27.5728 34.0509C26.7636 34.2129 25.9255 34.1518 25.1483 33.8742C24.371 33.5966 23.6839 33.113 23.1603 32.475L10.0366 16.7515C10.004 16.7128 9.96174 16.6834 9.91416 16.6661C9.86658 16.6488 9.8153 16.6444 9.76545 16.6532C9.71561 16.6619 9.66894 16.6836 9.63012 16.7161C9.59129 16.7486 9.56168 16.7907 9.54424 16.8382L5.2744 28.387C5.18582 28.6257 5.4208 28.857 5.65392 28.7619L10.8935 26.6218C11.1889 26.5021 11.5059 26.4446 11.8245 26.4532C12.1431 26.4617 12.4566 26.5359 12.7452 26.6713C13.0337 26.8067 13.2912 27.0002 13.5015 27.2397C13.7117 27.4793 13.8702 27.7597 13.967 28.0634C14.354 29.2505 13.7031 30.5326 12.5571 31.0007L5.71267 33.7954C4.44543 34.3129 2.98982 34.2215 1.84847 33.4597C1.07067 32.9399 0.490783 32.1731 0.202474 31.2831C-0.0858352 30.3932 -0.0657382 29.432 0.259519 28.5548L5.30424 14.9145C5.90196 13.2976 7.26339 12.1562 8.94652 11.8616C9.76617 11.7147 10.6102 11.7889 11.3916 12.0765C12.1731 12.3641 12.8638 12.8548 13.3926 13.4981L20.9252 22.5245L27.8535 19.6944C29.393 19.0659 31.0883 19.4025 32.2772 20.5737ZM28.2815 25.1075C28.3692 24.8687 28.1342 24.6375 27.9011 24.7335L24.0732 26.2964L26.369 29.0481C26.4016 29.0873 26.4439 29.1172 26.4917 29.1347C26.5395 29.1523 26.5911 29.1569 26.6412 29.1481C26.6914 29.1393 26.7384 29.1174 26.7773 29.0846C26.8163 29.0518 26.8459 29.0093 26.8632 28.9614L28.2806 25.1075H28.2815Z" fill="#A05BF8"/>
</g>
<defs>
<clipPath id="clip0_297_10143">
<rect width="163.473" height="46.7067" fill="white" transform="translate(0 0.111328)"/>
</clipPath>
</defs>
</svg>
