<svg width="29" height="24" viewBox="0 0 29 24" fill="none" xmlns="http://www.w3.org/2000/svg">
<path fill-rule="evenodd" clip-rule="evenodd" d="M13.9351 0.04633C11.9348 0.307921 10.3193 1.7998 9.91814 3.75623C9.616 5.22949 10.0564 6.7771 11.0863 7.86133C11.7236 8.53223 12.3681 8.93001 13.2502 9.19702C13.6678 9.32339 13.8115 9.3398 14.4998 9.3398C15.1881 9.3398 15.3318 9.32339 15.7494 9.19702C16.6332 8.92953 17.2577 8.54746 17.8851 7.89024C18.7372 6.99771 19.1663 5.92389 19.1663 4.68373C19.1663 3.40163 18.7093 2.32169 17.7706 1.38502C16.9984 0.614567 16.113 0.181175 15.0376 0.047081C14.5354 -0.0155141 14.4086 -0.0156214 13.9351 0.04633ZM4.62786 3.47833C4.21094 3.54227 3.77513 3.71552 3.39827 3.96719C2.16332 4.79187 1.74972 6.45613 2.44712 7.79471C2.67427 8.23068 3.27437 8.81951 3.71865 9.04232C4.88242 9.62606 6.20298 9.41473 7.12233 8.49763C7.55261 8.06843 7.80541 7.63541 7.92706 7.11926C8.1688 6.09381 7.88184 5.06252 7.15242 4.33509C6.47729 3.66183 5.52935 3.34011 4.62786 3.47833ZM23.5083 3.47833C23.0914 3.54227 22.6556 3.71552 22.2787 3.96719C21.0438 4.79187 20.6302 6.45613 21.3276 7.79471C21.5547 8.23068 22.1548 8.81951 22.5991 9.04232C23.7629 9.62606 25.0834 9.41473 26.0028 8.49763C26.4331 8.06843 26.6858 7.63541 26.8075 7.11926C27.0492 6.09381 26.7623 5.06252 26.0329 4.33509C25.3577 3.66183 24.4098 3.34011 23.5083 3.47833ZM3.9332 11.2006C3.47513 11.2619 3.18973 11.3539 2.7492 11.5822C1.80175 12.0734 1.1324 12.9063 0.874354 13.9152C0.774695 14.3049 0.768581 14.5201 0.768581 17.6363C0.768581 21.3451 0.758175 21.2357 1.15488 21.6864C1.27438 21.8222 1.49585 21.9985 1.647 22.0783L1.92179 22.2232H3.78795H5.65406L5.65132 19.9973C5.64783 17.1493 5.7196 16.3463 6.08509 15.1431C6.3868 14.1499 6.93111 13.1875 7.66734 12.3457C7.82611 12.1641 7.95602 12.004 7.95602 11.9899C7.95602 11.9758 7.80053 11.8629 7.61043 11.7391C7.16471 11.4487 6.64925 11.2717 6.04888 11.2029C5.51283 11.1415 4.38408 11.1403 3.9332 11.2006ZM12.8729 11.2273C11.2359 11.4954 9.919 12.2068 8.82651 13.4131C8.06083 14.2586 7.59708 15.2664 7.36054 16.599C7.22392 17.3685 7.16878 19.6749 7.24398 21.4723L7.29113 22.5987L7.47232 22.938C7.68166 23.3301 7.96712 23.5993 8.38512 23.7988L8.68013 23.9396L12.9443 23.9778C20.6597 24.047 20.9589 24.0126 21.5025 22.9948L21.7141 22.5987L21.7294 19.844C21.7462 16.8049 21.7285 16.5677 21.4154 15.633C20.6895 13.4665 18.7579 11.7115 16.6185 11.2747C16.0505 11.1587 13.4892 11.1263 12.8729 11.2273ZM22.879 11.2027C22.3564 11.2684 21.8094 11.4652 21.3892 11.7391C21.1991 11.8629 21.0436 11.9758 21.0436 11.9899C21.0436 12.004 21.1735 12.1641 21.3323 12.3457C22.1825 13.3178 22.7344 14.3408 23.0272 15.4877C23.2823 16.4871 23.3094 16.8381 23.3439 19.595L23.3768 22.2232H25.2005H27.0242L27.3076 22.0739C27.6913 21.8717 27.9894 21.5509 28.1214 21.1981C28.2274 20.9147 28.231 20.7971 28.231 17.6169C28.231 14.52 28.2249 14.3048 28.1253 13.9152C27.9573 13.2587 27.6861 12.796 27.1609 12.2703C26.6616 11.7705 26.1284 11.4492 25.5223 11.2828C25.1375 11.1771 23.4824 11.127 22.879 11.2027Z" fill="#7F56D9"/>
</svg>
