<svg width="145" height="48" viewBox="0 0 145 48" fill="none" xmlns="http://www.w3.org/2000/svg">
<g clip-path="url(#clip0_296_10079)">
<path fill-rule="evenodd" clip-rule="evenodd" d="M2 38.9371C2 40.7955 3.20602 42.0008 5.06513 42.0008L14.0207 42.001C19.3632 42.001 23.7335 40.1941 26.7047 37.0309H2V38.9371ZM14.0207 8.00115L5.06513 8.00098C3.20602 8.00098 2 9.20644 2 11.0649V12.9711H26.7047C23.7335 9.8079 19.3632 8.00115 14.0207 8.00115ZM21.8363 29.8455C21.8363 31.349 22.8161 32.3245 24.3267 32.3245H29.693C30.3013 30.8155 30.71 29.1567 30.9 27.3666H24.3267C22.8161 27.3666 21.8363 28.3419 21.8363 29.8455ZM14.3981 20.1687C14.3981 21.6723 15.3779 22.6476 16.8885 22.6476H30.9C30.71 20.8575 30.3013 19.1987 29.693 17.6897H16.8885C15.3779 17.6897 14.3981 18.665 14.3981 20.1687ZM16.8868 29.8455C16.8868 28.3419 15.907 27.3666 14.3964 27.3666H2V32.3245H14.3964C15.907 32.3245 16.8868 31.3492 16.8868 29.8455ZM9.4487 20.1687C9.4487 18.665 8.46888 17.6897 6.95826 17.6897H2V22.6476H6.95826C8.46888 22.6476 9.4487 21.6723 9.4487 20.1687Z" fill="#0062FF"/>
<path fill-rule="evenodd" clip-rule="evenodd" d="M65.0228 24.4892C65.4219 22.549 66.7109 21.5625 68.4052 21.5625C70.0849 21.5625 71.3132 22.5932 71.705 24.4892H65.0228ZM68.4973 18.2012C64.1833 18.2012 61.5 21.6552 61.5 25.8801C61.5 30.2558 64.3673 33.5012 68.6289 33.5012C71.568 33.5012 73.3508 32.1391 74.4542 30.424L71.7106 28.6676C71.0208 29.6119 69.9171 30.1108 68.7341 30.1108C66.7989 30.1108 65.503 29.2028 65.0613 27.3869H72.3028C72.3022 27.3893 72.3017 27.3916 72.301 27.3942L74.9409 27.4097C75.041 26.9319 75.1 26.4381 75.1 25.8801C75.1 22.2001 72.8377 18.2012 68.4973 18.2012Z" fill="#0062FF"/>
<path fill-rule="evenodd" clip-rule="evenodd" d="M50.4498 30.1011C47.7955 30.1011 46.1998 28.1982 46.1998 25.851C46.1998 23.5038 47.8261 21.6011 50.4498 21.6011C53.0736 21.6011 54.6998 23.5038 54.6998 25.851C54.6998 28.1982 53.1041 30.1011 50.4498 30.1011ZM54.4106 20.4474C53.3507 19.1744 51.8458 18.3941 49.9779 18.3941C45.8026 18.3941 42.7998 21.776 42.7998 25.9476C42.7998 30.1193 45.7741 33.5011 49.9779 33.5011C51.8458 33.5011 53.3507 32.7207 54.4106 31.4477V33.1291H58.0998V13.1011H54.4106V20.4474Z" fill="#0062FF"/>
<path fill-rule="evenodd" clip-rule="evenodd" d="M86.3817 25.6002C87.3833 26.2999 88.0181 27.3491 88.0181 28.7335C88.0181 31.5315 86.1321 33.4728 82.606 33.4728C79.2877 33.4728 77.5083 31.7725 76.7998 30.0553L79.8455 28.2768C79.8455 28.2768 80.2555 30.1325 82.5514 30.1325C83.9727 30.1325 84.4101 29.5043 84.4101 28.9496C84.4101 28.6926 84.328 28.2197 83.3168 27.8199C81.2855 27.0172 77.3581 26.657 77.3581 22.995C77.3581 19.9974 79.7078 18.3987 82.606 18.3987C85.3161 18.3987 87.057 20.0849 87.7179 21.397L84.7381 23.1378C84.7381 23.1378 84.1641 21.6817 82.6334 21.6817C81.1028 21.6817 80.9661 22.5669 80.9661 22.8237C80.9661 23.5732 81.7301 23.8809 83.3714 24.3656C84.3432 24.6524 85.3413 24.913 86.3848 25.5976C86.3838 25.5985 86.3827 25.5993 86.3817 25.6002ZM146.5 22.3384H143.411V28.2766C143.411 30.1326 145.215 29.7327 146.5 29.7327V33.073C146.5 33.073 145.823 33.1872 144.641 33.1872C142.017 33.1872 139.885 32.3879 139.885 28.2766V22.3384H137.507V18.7982H139.885V14.8013H143.411V18.7982H146.5V22.3384ZM96.7837 29.8755C98.2469 29.8755 99.3719 29.1465 99.9405 27.9506L102.997 29.7811C101.799 31.9749 99.5679 33.5013 96.7837 33.5013C92.5609 33.5013 89.6088 30.1268 89.6088 25.9643C89.6088 21.8016 92.5882 18.4272 96.7837 18.4272C99.5271 18.4272 101.75 19.9286 102.961 22.0933L99.911 23.9656C99.3314 22.7853 98.2153 22.0529 96.7837 22.0529C94.65 22.0529 93.1349 23.8041 93.1349 25.9643C93.1349 28.1243 94.6361 29.8755 96.7837 29.8755Z" fill="#0062FF"/>
<path fill-rule="evenodd" clip-rule="evenodd" d="M129.197 29.8364C126.9 29.8364 125.52 28.0457 125.52 25.8369C125.52 23.6281 126.927 21.8375 129.197 21.8375C131.468 21.8375 132.875 23.6281 132.875 25.8369C132.875 28.0457 131.494 29.8364 129.197 29.8364ZM129.635 18.3485C133.512 18.3485 136.3 21.7013 136.3 25.8369C136.3 29.9726 133.539 33.3252 129.635 33.3252C127.901 33.3252 126.504 32.5516 125.52 31.2896V38.6011H122.094V18.7457H125.52V20.3841C126.504 19.1221 127.901 18.3485 129.635 18.3485ZM115.509 32.9564V18.774H118.934V32.9564H115.509ZM109.126 21.1966C109.787 19.478 111.133 18.495 113.162 18.4905V22.5751C110.784 22.3347 109.066 23.5978 109.128 26.5815C109.127 26.5793 109.127 26.577 109.126 26.5747V32.9564H105.7V18.7742H109.126V21.1966ZM115.509 16.8813V13.1011H119.047V16.8813H115.509Z" fill="#0062FF"/>
</g>
<defs>
<clipPath id="clip0_296_10079">
<rect width="145" height="48" fill="white" transform="translate(0 0.000976562)"/>
</clipPath>
</defs>
</svg>
