<svg width="165" height="33" viewBox="0 0 165 33" fill="none" xmlns="http://www.w3.org/2000/svg">
<path d="M35.2844 3.34943C32.5993 2.0931 29.7281 1.18005 26.7264 0.660156C26.3578 1.32665 25.9271 2.22309 25.6302 2.93621C22.4393 2.45634 19.2778 2.45634 16.1456 2.93621C15.8487 2.22309 15.4083 1.32665 15.0363 0.660156C12.0314 1.18005 9.15698 2.09646 6.4718 3.35609C1.05576 11.5404 -0.41244 19.5215 0.321661 27.3892C3.91386 30.0718 7.39514 31.7014 10.8177 32.7677C11.6627 31.6047 12.4164 30.3684 13.0656 29.0654C11.8291 28.5956 10.6447 28.0157 9.52568 27.3426C9.82256 27.1227 10.113 26.8927 10.3935 26.6561C17.219 29.8485 24.6351 29.8485 31.379 26.6561C31.6629 26.8927 31.9532 27.1227 32.2469 27.3426C31.1245 28.019 29.9369 28.5989 28.7004 29.0688C29.3496 30.3684 30.1001 31.6081 30.9483 32.771C34.3742 31.7047 37.8587 30.0751 41.4509 27.3892C42.3122 18.2685 39.9794 10.3608 35.2844 3.34943ZM13.9955 22.5506C11.9466 22.5506 10.2663 20.6378 10.2663 18.3085C10.2663 15.9792 11.9107 14.063 13.9955 14.063C16.0804 14.063 17.7606 15.9758 17.7248 18.3085C17.728 20.6378 16.0804 22.5506 13.9955 22.5506ZM27.777 22.5506C25.7281 22.5506 24.0478 20.6378 24.0478 18.3085C24.0478 15.9792 25.6922 14.063 27.777 14.063C29.8619 14.063 31.5422 15.9758 31.5063 18.3085C31.5063 20.6378 29.8619 22.5506 27.777 22.5506Z" fill="#A05BF8"/>
<path d="M55.8878 8.85189H64.7946C66.9418 8.85189 68.7557 9.19512 70.2438 9.87827C71.7279 10.5614 72.8407 11.5144 73.5782 12.7341C74.3152 13.9538 74.6871 15.35 74.6871 16.9229C74.6871 18.4625 74.3021 19.8587 73.5322 21.1084C72.7623 22.3613 71.5909 23.3511 70.0152 24.0809C68.4395 24.8107 66.488 25.1772 64.1555 25.1772H55.8878V8.85189ZM64.0639 21.0284C65.5094 21.0284 66.6222 20.6585 67.3984 19.922C68.1751 19.1822 68.5635 18.1759 68.5635 16.8996C68.5635 15.7166 68.2172 14.7735 67.5257 14.067C66.8343 13.3606 65.7869 13.004 64.3869 13.004H61.6006V21.0284H64.0639Z" fill="#A05BF8"/>
<path d="M88.0218 25.1573C86.7885 24.8307 85.6757 24.3575 84.6874 23.7344V19.8622C85.4346 20.452 86.4359 20.9385 87.692 21.3217C88.9481 21.7016 90.1621 21.8916 91.3364 21.8916C91.8845 21.8916 92.2991 21.8183 92.5794 21.6716C92.8603 21.525 93.0008 21.3484 93.0008 21.1451C93.0008 20.9119 92.9257 20.7186 92.7722 20.5619C92.6186 20.4053 92.3218 20.2753 91.8817 20.1654L89.1409 19.5355C87.5715 19.1624 86.4587 18.6458 85.7968 17.9827C85.1343 17.3228 84.8045 16.4564 84.8045 15.3834C84.8045 14.4803 85.0917 13.6973 85.6728 13.0274C86.25 12.3576 87.0722 11.8411 88.139 11.4778C89.2063 11.1113 90.4522 10.928 91.8845 10.928C93.1634 10.928 94.3348 11.068 95.4021 11.3479C96.4688 11.6278 97.3496 11.9844 98.0513 12.4209V16.0832C97.3332 15.6467 96.5109 15.3035 95.5715 15.0435C94.635 14.7869 93.6729 14.6603 92.6806 14.6603C91.2482 14.6603 90.534 14.9102 90.534 15.4067C90.534 15.64 90.6449 15.8133 90.8667 15.9299C91.0885 16.0465 91.4962 16.1665 92.087 16.2932L94.3706 16.713C95.8621 16.9763 96.9743 17.4395 97.705 18.0993C98.4363 18.7591 98.8014 19.7355 98.8014 21.0285C98.8014 22.4447 98.198 23.5678 96.9874 24.4009C95.7768 25.234 94.0607 25.6505 91.8356 25.6505C90.5272 25.6472 89.2552 25.4839 88.0218 25.1573Z" fill="#A05BF8"/>
<path d="M104.192 24.6673C102.884 24.0141 101.896 23.1277 101.237 22.008C100.578 20.8883 100.245 19.6287 100.245 18.2291C100.245 16.8295 100.587 15.5765 101.272 14.4735C101.958 13.3705 102.962 12.5041 104.287 11.8742C105.612 11.2444 107.194 10.9312 109.038 10.9312C111.321 10.9312 113.217 11.4211 114.724 12.4007V16.6696C114.193 16.2963 113.572 15.9931 112.864 15.7598C112.157 15.5266 111.4 15.4099 110.591 15.4099C109.175 15.4099 108.069 15.6731 107.269 16.203C106.47 16.7328 106.069 17.4227 106.069 18.2791C106.069 19.1188 106.457 19.8053 107.233 20.3452C108.01 20.8817 109.135 21.1516 110.613 21.1516C111.374 21.1516 112.124 21.0383 112.864 20.815C113.602 20.5884 114.238 20.3119 114.77 19.9852V24.1141C113.096 25.1404 111.155 25.6536 108.946 25.6536C107.087 25.647 105.501 25.3204 104.192 24.6673Z" fill="#A05BF8"/>
<path d="M120.421 24.6675C119.103 24.0144 118.098 23.1213 117.406 21.985C116.715 20.8486 116.365 19.5823 116.365 18.1827C116.365 16.7831 116.711 15.5334 117.406 14.4371C118.101 13.3408 119.099 12.481 120.411 11.8578C121.719 11.2347 123.282 10.9248 125.093 10.9248C126.904 10.9248 128.466 11.2347 129.775 11.8578C131.083 12.481 132.082 13.3341 132.767 14.4238C133.452 15.5135 133.794 16.7631 133.794 18.1794C133.794 19.579 133.452 20.8453 132.767 21.9816C132.082 23.1179 131.08 24.011 129.762 24.6642C128.444 25.3173 126.887 25.6439 125.09 25.6439C123.292 25.6439 121.736 25.3206 120.421 24.6675ZM127.36 20.5287C127.915 19.9622 128.196 19.2124 128.196 18.2794C128.196 17.3463 127.918 16.6032 127.36 16.0533C126.806 15.5001 126.049 15.2235 125.09 15.2235C124.114 15.2235 123.35 15.5001 122.793 16.0533C122.238 16.6065 121.961 17.3463 121.961 18.2794C121.961 19.2124 122.238 19.9622 122.793 20.5287C123.348 21.0952 124.114 21.3818 125.09 21.3818C126.049 21.3785 126.806 21.0952 127.36 20.5287Z" fill="#A05BF8"/>
<path d="M147.517 11.7912V16.8297C146.937 16.4398 146.186 16.2465 145.256 16.2465C144.039 16.2465 143.099 16.6231 142.447 17.3762C141.791 18.1294 141.465 19.3023 141.465 20.8885V25.1807H135.869V11.5346H141.351V15.8733C141.654 14.2871 142.147 13.1175 142.825 12.361C143.501 11.6079 144.375 11.2313 145.439 11.2313C146.245 11.2313 146.937 11.418 147.517 11.7912Z" fill="#A05BF8"/>
<path d="M166.108 8.38531V25.1805H160.512V22.1248C160.039 23.2744 159.322 24.1509 158.356 24.7507C157.39 25.3472 156.196 25.6471 154.78 25.6471C153.514 25.6471 152.412 25.3338 151.468 24.704C150.525 24.0742 149.798 23.2111 149.286 22.1148C148.777 21.0184 148.519 19.7788 148.519 18.3925C148.503 16.9629 148.774 15.6799 149.331 14.5436C149.886 13.4072 150.672 12.5208 151.684 11.8843C152.695 11.2479 153.85 10.9279 155.146 10.9279C157.811 10.9279 159.599 12.1109 160.512 14.4736V8.38531H166.108ZM159.678 20.4353C160.248 19.8687 160.532 19.1323 160.532 18.2326C160.532 17.3628 160.255 16.653 159.7 16.1098C159.145 15.5667 158.385 15.2934 157.429 15.2934C156.486 15.2934 155.733 15.57 155.168 16.1231C154.604 16.6763 154.323 17.3928 154.323 18.2792C154.323 19.1656 154.604 19.8888 155.168 20.4486C155.733 21.0084 156.477 21.2883 157.406 21.2883C158.349 21.285 159.106 21.0017 159.678 20.4353Z" fill="#A05BF8"/>
<path d="M79.4023 12.9872C80.9427 12.9872 82.192 11.8413 82.192 10.4279C82.192 9.01443 80.9427 7.86864 79.4023 7.86864C77.8614 7.86864 76.6126 9.01443 76.6126 10.4279C76.6126 11.8413 77.8614 12.9872 79.4023 12.9872Z" fill="#A05BF8"/>
<path d="M76.6102 14.7502C78.3195 15.5033 80.4405 15.5366 82.189 14.7502V25.2538H76.6102V14.7502Z" fill="#A05BF8"/>
</svg>
