<svg width="157" height="48" viewBox="0 0 157 48" fill="none" xmlns="http://www.w3.org/2000/svg">
<g clip-path="url(#clip0_297_10154)">
<path d="M44.083 14.4531H51.4998C56.2282 14.4531 60.1342 17.1889 60.1342 23.4355V24.748C60.1342 31.042 56.4812 33.8727 51.6421 33.8727H44.083V14.4531ZM48.2263 17.9796V30.3304H51.4049C54.0933 30.3304 55.8961 28.575 55.8961 24.6689V23.641C55.8961 19.735 53.9984 17.9796 51.2626 17.9796H48.2263ZM62.3324 18.1694H65.6533L66.191 21.8224C66.8236 19.3396 68.4366 18.0112 71.3622 18.0112H72.3901V22.202H70.6822C67.3138 22.202 66.4915 23.3722 66.4915 26.6931V33.9202H62.3956V18.1694H62.3324ZM73.2124 26.3611V25.9183C73.2124 20.6522 76.5808 17.774 81.1669 17.774C85.8478 17.774 89.1213 20.6522 89.1213 25.9183V26.3611C89.1213 31.5322 85.9427 34.3155 81.1669 34.3155C76.0906 34.2681 73.2124 31.548 73.2124 26.3611ZM84.9306 26.3136V25.9183C84.9306 22.9927 83.4599 21.2373 81.1194 21.2373C78.8264 21.2373 77.3083 22.8503 77.3083 25.9183V26.3136C77.3083 29.1443 78.779 30.7573 81.1194 30.7573C83.4599 30.7099 84.9306 29.1443 84.9306 26.3136ZM91.272 18.1694H94.6879L95.0832 21.1424C95.9056 19.1499 97.6609 17.774 100.254 17.774C104.255 17.774 106.896 20.6522 106.896 25.9815V26.4243C106.896 31.5955 103.971 34.3313 100.254 34.3313C97.7716 34.3313 96.0637 33.2085 95.2255 31.4057V39.3602H91.2246L91.272 18.1694ZM102.737 26.3136V25.9657C102.737 22.8345 101.124 21.2847 98.9735 21.2847C96.6804 21.2847 95.1623 23.0401 95.1623 25.9657V26.2662C95.1623 29.0494 96.633 30.8048 98.926 30.8048C101.282 30.7573 102.737 29.255 102.737 26.3136ZM112.953 31.0104L112.605 33.8885H109.094V12.9033H113.095V20.9527C113.981 18.8968 115.736 17.774 118.219 17.774C121.983 17.8215 124.766 20.415 124.766 25.6336V26.1238C124.766 31.3425 122.125 34.3313 118.124 34.3313C115.483 34.2681 113.775 33.0504 112.953 31.0104ZM120.56 26.1238V25.7285C120.56 22.8503 118.994 21.2373 116.796 21.2373C114.55 21.2373 112.985 23.0401 112.985 25.7759V26.1238C112.985 29.0494 114.503 30.7573 116.748 30.7573C119.152 30.7573 120.56 29.255 120.56 26.1238ZM126.522 26.3611V25.9183C126.522 20.6522 129.89 17.774 134.476 17.774C139.157 17.774 142.43 20.6522 142.43 25.9183V26.3611C142.43 31.5322 139.204 34.3155 134.476 34.3155C129.4 34.2681 126.522 31.548 126.522 26.3611ZM138.271 26.3136V25.9183C138.271 22.9927 136.801 21.2373 134.46 21.2373C132.167 21.2373 130.649 22.8503 130.649 25.9183V26.3136C130.649 29.1443 132.12 30.7573 134.46 30.7573C136.816 30.7099 138.271 29.1443 138.271 26.3136ZM147.791 25.7285L142.272 18.1694H147.001L150.179 22.8978L153.405 18.1694H158.086L152.488 25.681L158.387 33.8885H153.753L150.148 28.6699L146.637 33.8885H141.798L147.791 25.7285Z" fill="#A05BF8"/>
<path d="M18.5913 14.4537L9.4192 20.3049L18.5913 26.1561L9.4192 32.0073L0.24707 26.1245L9.4192 20.2733L0.24707 14.4537L9.4192 8.60254L18.5913 14.4537ZM9.37176 33.8892L18.5439 28.038L27.716 33.8892L18.5439 39.7403L9.37176 33.8892ZM18.5913 26.1245L27.7635 20.2733L18.5913 14.4537L27.716 8.60254L36.8882 14.4537L27.716 20.3049L36.8882 26.1561L27.716 32.0073L18.5913 26.1245Z" fill="#A05BF8"/>
</g>
<defs>
<clipPath id="clip0_297_10154">
<rect width="158.608" height="46.7067" fill="white" transform="translate(0.24707 0.818359)"/>
</clipPath>
</defs>
</svg>
