<svg width="128" height="48" viewBox="0 0 128 48" fill="none" xmlns="http://www.w3.org/2000/svg">
<g clip-path="url(#clip0_296_10098)">
<path d="M46.172 24.0536C46.1762 22.2612 45.6261 20.5113 44.597 19.0437C43.5679 17.5762 42.1102 16.4627 40.4236 15.8559C40.5771 15.0736 40.6545 14.2783 40.6547 13.481C40.6562 10.8423 39.8209 8.27095 38.2689 6.13682C36.7169 4.0027 34.5281 2.41568 32.0173 1.60394C29.5064 0.792196 26.8029 0.797546 24.2953 1.61922C21.7877 2.44089 19.6052 4.03656 18.0616 6.17681C16.9229 5.29435 15.5275 4.80706 14.087 4.78874C12.6464 4.77042 11.2391 5.22208 10.0783 6.0753C8.91746 6.92851 8.06631 8.1368 7.65377 9.51715C7.24123 10.8975 7.28978 12.3747 7.79207 13.7249C6.10152 14.3411 4.64022 15.4603 3.60473 16.9318C2.56924 18.4033 2.00923 20.1567 2.00003 21.956C1.99534 23.7546 2.54832 25.5104 3.58284 26.9818C4.61736 28.4531 6.08255 29.5675 7.77666 30.1717C7.6267 30.9536 7.5502 31.7478 7.54817 32.5439C7.54565 35.1797 8.38025 37.7481 9.93163 39.8789C11.483 42.0097 13.671 43.5928 16.1802 44.3998C18.6893 45.2069 21.3899 45.1962 23.8926 44.3694C26.3953 43.5426 28.5707 41.9424 30.1053 39.7994C31.2407 40.684 32.6337 41.1743 34.0729 41.1958C35.5121 41.2173 36.9191 40.7688 38.0805 39.9184C39.2418 39.068 40.0941 37.8621 40.5082 36.4836C40.9222 35.105 40.8754 33.629 40.3749 32.2795C42.0663 31.6644 43.5286 30.5456 44.5646 29.0739C45.6007 27.6021 46.1608 25.8482 46.1695 24.0484" fill="white"/>
<path d="M19.3655 19.9512L29.0318 24.3645L38.7879 15.8202C38.9284 15.1152 38.9981 14.3979 38.9958 13.679C38.9953 11.3517 38.25 9.08557 36.8688 7.21233C35.4877 5.33908 33.5433 3.95703 31.3202 3.2684C29.0971 2.57976 26.7119 2.62071 24.5137 3.38523C22.3155 4.14976 20.4197 5.59773 19.1037 7.51727L17.4785 15.9229L19.3655 19.9512Z" fill="#FEC514"/>
<path d="M9.36056 30.1874C9.21803 30.9035 9.14665 31.6319 9.14747 32.362C9.14752 34.6991 9.89669 36.9745 11.285 38.8545C12.6734 40.7345 14.6278 42.1199 16.8614 42.8075C19.095 43.495 21.4902 43.4485 23.6954 42.6748C25.9006 41.901 27.7998 40.4408 29.1141 38.5084L30.7238 30.1207L28.5749 26.0128L18.8728 21.5918L9.36056 30.1874Z" fill="#00BFB3"/>
<path d="M9.30175 13.4605L15.9256 15.024L17.3762 7.4913C16.4753 6.80814 15.3773 6.4352 14.2466 6.42832C13.116 6.42144 12.0135 6.78098 11.1043 7.45312C10.1951 8.12526 9.52813 9.07382 9.20317 10.1568C8.87822 11.2397 8.9128 12.3988 9.30175 13.4605Z" fill="#F04E98"/>
<path d="M8.72629 15.0371C7.27294 15.5275 6.00856 16.4587 5.10899 17.7011C4.20942 18.9434 3.71938 20.4353 3.70703 21.9691C3.70599 23.4514 4.15616 24.899 4.99769 26.1194C5.83923 27.3397 7.03226 28.275 8.4182 28.8009L17.7122 20.4004L16.0048 16.7547L8.72629 15.0371Z" fill="#1BA9F5"/>
<path d="M30.8145 38.508C31.7139 39.1877 32.8091 39.5582 33.9365 39.5642C35.0639 39.5702 36.163 39.2114 37.0697 38.5413C37.9764 37.8712 38.6419 36.9258 38.967 35.8463C39.2921 34.7667 39.2593 33.611 38.8735 32.5517L32.2548 31.0112L30.8145 38.508Z" fill="#93C90E"/>
<path d="M32.1598 29.2682L39.4461 30.9704C40.9002 30.4813 42.1655 29.5505 43.0653 28.3079C43.965 27.0652 44.4545 25.5727 44.4653 24.0385C44.464 22.5592 44.0129 21.1153 43.172 19.8984C42.331 18.6814 41.1399 17.7489 39.7567 17.2246L30.2266 25.5686L32.1598 29.2682Z" fill="#0077CC"/>
<path d="M63.7608 31.9125L64.644 31.8226L64.7056 33.6198C62.7403 33.9165 60.7572 34.0795 58.7698 34.1076C56.579 34.1076 55.0266 33.4734 54.1126 32.2051C53.1986 30.9368 52.7424 28.9634 52.7441 26.2847C52.7441 20.9497 54.8648 18.2813 59.1061 18.2796C61.1601 18.2796 62.6919 18.853 63.7018 19.9997C64.7116 21.1465 65.2182 22.9437 65.2217 25.3913L65.101 27.1268H55.0574C55.0574 28.811 55.362 30.0588 55.9714 30.8701C56.5807 31.6814 57.6402 32.087 59.1498 32.087C60.6628 32.0922 62.1999 32.034 63.7608 31.9125ZM62.9393 25.3091C62.9393 23.4418 62.6406 22.123 62.0432 21.3528C61.4459 20.5825 60.472 20.1966 59.1216 20.1949C57.7711 20.1949 56.7561 20.6005 56.0766 21.4118C55.3971 22.2231 55.0471 23.5222 55.0266 25.3091H62.9393Z" fill="#1C1E23"/>
<path d="M68.4052 33.9869V13.9612H70.6877V33.9869H68.4052Z" fill="#1C1E23"/>
<path d="M85.0626 23.1782V30.8547C85.0626 31.6249 86.9573 31.5838 86.9573 31.5838L86.8418 33.6018C85.2372 33.6018 83.9098 33.7353 83.114 32.9625C81.3904 33.728 79.5235 34.1175 77.6377 34.105C76.2393 34.105 75.1739 33.7088 74.4413 32.9163C73.7087 32.1238 73.3433 30.9848 73.345 29.4991C73.345 28.0169 73.7207 26.9257 74.4721 26.2257C75.2235 25.5256 76.4002 25.0977 78.0023 24.942L82.7802 24.4875V23.1782C82.7802 22.1512 82.5577 21.4101 82.1127 20.9548C81.8688 20.7259 81.5811 20.5488 81.267 20.4341C80.9528 20.3193 80.6187 20.2694 80.2847 20.2873H74.2873V18.277H80.1332C81.8585 18.277 83.1114 18.6732 83.8919 19.4657C84.6724 20.2582 85.0626 21.4957 85.0626 23.1782ZM75.6839 29.3861C75.6839 31.2535 76.4541 32.1872 77.9946 32.1872C79.3843 32.1856 80.7636 31.9486 82.0742 31.4863L82.7725 31.2424V26.2205L78.277 26.6467C77.363 26.7289 76.7032 26.9925 76.2975 27.4375C75.8919 27.8825 75.6873 28.532 75.6839 29.3861Z" fill="#1C1E23"/>
<path d="M93.9738 20.3181C91.7607 20.3181 90.6542 21.0883 90.6542 22.6287C90.6542 23.3408 90.9109 23.8431 91.4244 24.1358C91.9379 24.4285 93.094 24.7332 94.8929 25.0498C96.7004 25.3664 97.9789 25.808 98.7286 26.3746C99.4783 26.9411 99.854 28.0057 99.8557 29.5684C99.8557 31.1328 99.3533 32.2796 98.3486 33.0087C97.3439 33.7379 95.878 34.1033 93.9507 34.105C92.6927 34.105 88.4924 33.6377 88.4924 33.6377L88.6156 31.6608C91.029 31.8919 92.7723 32.0639 93.9507 32.0639C95.1291 32.0639 96.0252 31.8765 96.6439 31.5017C97.2626 31.1268 97.5707 30.4978 97.5707 29.6146C97.5707 28.7314 97.314 28.1332 96.78 27.8175C96.2459 27.5017 95.0958 27.2038 93.3114 26.9189C91.5271 26.6339 90.2562 26.218 89.5065 25.6711C88.7569 25.1243 88.3795 24.1076 88.3795 22.6262C88.3795 21.1448 88.8929 20.0588 89.9481 19.3399C91.0033 18.621 92.2973 18.2744 93.8583 18.2744C95.0958 18.2744 99.391 18.5902 99.391 18.5902V20.58C97.124 20.4798 95.2703 20.3181 93.9738 20.3181Z" fill="#1C1E23"/>
<path d="M110.857 20.5594H106.018V27.8354C106.018 29.5795 106.144 30.7255 106.398 31.2732C106.654 31.8226 107.255 32.0947 108.208 32.0947L110.916 31.9124L111.07 33.7995C110.045 33.9891 109.006 34.1015 107.964 34.1358C106.382 34.1358 105.287 33.7498 104.677 32.9779C104.068 32.206 103.764 30.7349 103.766 28.5646V20.5594H101.614V18.5825H103.776V13.9253H106.028V18.5825H110.857V20.5594Z" fill="#1C1E23"/>
<path d="M114.03 16.639V13.9895H116.313V16.639H114.03ZM114.03 33.9869V18.5825H116.313V33.9869H114.03Z" fill="#1C1E23"/>
<path d="M126.2 18.277C127.34 18.3257 128.475 18.4483 129.599 18.6442L130.328 18.734L130.238 20.5902C129.046 20.4391 127.846 20.3483 126.644 20.3181C124.919 20.3181 123.747 20.7289 123.129 21.5505C122.511 22.372 122.202 23.8936 122.2 26.1153C122.2 28.3404 122.489 29.8876 123.068 30.7571C123.646 31.6266 124.853 32.0631 126.688 32.0665L130.282 31.7944L130.374 33.6814C128.975 33.9184 127.562 34.0608 126.143 34.1076C123.771 34.1076 122.133 33.4982 121.229 32.2796C120.326 31.0609 119.874 29.007 119.874 26.1178C119.874 23.227 120.361 21.1979 121.335 20.0306C122.309 18.8632 123.93 18.2787 126.2 18.277Z" fill="#1C1E23"/>
</g>
<defs>
<clipPath id="clip0_296_10098">
<rect width="128" height="48" fill="white" transform="translate(0 0.000976562)"/>
</clipPath>
</defs>
</svg>
