<svg width="27" height="24" viewBox="0 0 27 24" fill="none" xmlns="http://www.w3.org/2000/svg">
<path fill-rule="evenodd" clip-rule="evenodd" d="M13.1609 0.0659996C12.7405 0.197125 12.7188 0.233595 10.9147 3.84041C9.98432 5.70069 9.21991 7.22596 9.21614 7.22988C9.21237 7.23381 7.52356 7.49498 5.46324 7.81022C3.40288 8.12551 1.66824 8.40207 1.60844 8.42482C1.42305 8.49531 1.13452 8.78114 1.04099 8.98697C0.930064 9.23113 0.924819 9.58535 1.0283 9.84397C1.0884 9.99416 1.75231 10.6744 3.83464 12.7196C6.20667 15.0492 6.56029 15.415 6.5472 15.5262C6.53892 15.5965 6.26706 17.2422 5.94309 19.1834C5.28869 23.1046 5.28256 23.17 5.53726 23.5328C5.74638 23.8306 6.04652 23.9856 6.41519 23.986C6.70671 23.9863 6.73896 23.9709 10.071 22.2344C11.92 21.2707 13.4625 20.4824 13.4988 20.4824C13.5351 20.4824 15.0664 21.2644 16.9017 22.2202C18.9342 23.2788 20.316 23.9704 20.4367 23.9895C20.8111 24.049 21.2564 23.8499 21.4752 23.5252C21.7358 23.1386 21.7509 23.3 21.0677 19.1862L20.4409 15.4126L23.1689 12.7124C25.0462 10.8543 25.9204 9.95608 25.9721 9.83225C26.0804 9.57299 26.0679 9.18334 25.9428 8.92496C25.8258 8.6834 25.5344 8.44698 25.2677 8.37742C25.1708 8.35213 23.4481 8.08473 21.4395 7.78316C19.431 7.4816 17.7845 7.23209 17.7807 7.22876C17.777 7.22547 17.0194 5.71172 16.0973 3.86492C14.8875 1.44216 14.371 0.455505 14.2423 0.32183C14.1276 0.202714 13.9772 0.110754 13.8213 0.06448C13.5306 -0.0218425 13.4421 -0.0216464 13.1609 0.0659996Z" fill="#7F56D9"/>
</svg>
