<svg width="25" height="25" viewBox="0 0 25 25" fill="none" xmlns="http://www.w3.org/2000/svg">
<path fill-rule="evenodd" clip-rule="evenodd" d="M22.6416 0.531828C19.3129 0.816734 15.7724 2.2588 12.9019 4.49891C12.2286 5.02437 11.3473 5.82078 10.9432 6.26905L10.6152 6.63289L10.2534 6.66172C8.15329 6.82902 6.72431 7.21564 5.03924 8.07247C3.75004 8.72802 1.93991 10.1167 1.76446 10.5848C1.68215 10.8046 1.81152 11.0945 2.03062 11.1813C2.10023 11.2088 2.99043 11.3489 4.00879 11.4926C5.02715 11.6363 5.88909 11.7638 5.9242 11.7759C5.9676 11.7909 5.90291 11.8949 5.72226 12.1007C5.42394 12.4405 5.36057 12.6358 5.47724 12.856C5.59973 13.0873 12.0776 19.5215 12.2236 19.557C12.4274 19.6065 12.5606 19.5491 12.8896 19.27C13.09 19.0999 13.2037 19.0308 13.2166 19.0711C13.2275 19.105 13.3549 19.9766 13.4996 21.0078C13.7759 22.9758 13.7926 23.0425 14.0445 23.1776C14.2608 23.2936 14.4977 23.2184 14.7776 22.945C15.5519 22.1885 16.4179 20.9609 16.9902 19.8086C17.7576 18.2634 18.1629 16.7987 18.3056 15.0547L18.3593 14.3984L18.8865 13.8828C19.8143 12.9755 20.553 12.0887 21.2882 11C23.2635 8.075 24.389 4.81475 24.4793 1.75597L24.5066 0.832203L24.3405 0.666125L24.1744 0.5L23.5018 0.507875C23.1318 0.512234 22.7447 0.522969 22.6416 0.531828ZM18.4818 5.03825C18.8577 5.18108 19.1048 5.34228 19.3927 5.63248C19.8642 6.1078 20.0901 6.66955 20.0901 7.36719C20.0901 8.07322 19.8625 8.63131 19.3763 9.1175C18.8901 9.60369 18.332 9.83127 17.626 9.83127C16.9199 9.83127 16.3619 9.60369 15.8757 9.1175C15.3895 8.63131 15.1619 8.07322 15.1619 7.36719C15.1619 6.29778 15.7679 5.42028 16.7707 5.03764C17.2519 4.85403 17.9977 4.85431 18.4818 5.03825ZM4.78223 16.5538C4.22873 16.6756 3.72084 16.9362 3.30037 17.3141C2.88013 17.6919 2.3984 18.5865 1.78795 20.1229C1.35585 21.2105 0.493164 23.7785 0.493164 23.9772C0.493164 24.2814 0.708367 24.5 1.0079 24.5C1.2142 24.5 3.74549 23.6522 4.84982 23.2133C5.83415 22.822 6.8301 22.343 7.24485 22.0614C8.1726 21.4313 8.67149 20.161 8.44185 19.0135C8.3473 18.5411 8.07866 17.9633 7.79657 17.6255C7.06382 16.7482 5.85365 16.3179 4.78223 16.5538Z" fill="#7F56D9"/>
</svg>
