<svg width="25" height="24" viewBox="0 0 25 24" fill="none" xmlns="http://www.w3.org/2000/svg">
<path fill-rule="evenodd" clip-rule="evenodd" d="M14.3713 0.106599C14.2843 0.165193 14.1652 0.284349 14.1066 0.371349C14.0003 0.529036 14 0.534755 14 2.3326C14 4.06913 14.0036 4.14197 14.0969 4.30613C14.2563 4.5863 14.4001 4.66449 14.75 4.66107C14.9205 4.65938 15.15 4.62174 15.2711 4.57557C15.9848 4.30336 16.5579 5.22202 16.0048 5.75161C15.7854 5.96166 15.5165 6.02363 15.2572 5.92388C15.1458 5.88103 14.9387 5.83688 14.7969 5.82582C14.4989 5.80252 14.2908 5.91047 14.1066 6.18385C14.0003 6.34158 14 6.34679 14 8.15625C14 9.96572 14.0003 9.97092 14.1066 10.1287C14.1652 10.2157 14.2843 10.3348 14.3713 10.3934C14.5259 10.4976 14.5575 10.5 15.7647 10.5H17V10.6542C17 11.1059 17.2766 11.7096 17.6585 12.0915C18.707 13.14 20.4746 12.9023 21.2119 11.6135C21.3677 11.3412 21.5 10.9007 21.5 10.6542V10.5H22.7352C23.9425 10.5 23.9741 10.4976 24.1287 10.3934C24.2157 10.3348 24.3348 10.2157 24.3934 10.1287L24.5 9.9705V5.95603C24.5 1.53779 24.5068 1.65202 24.2104 1.13382C24.0288 0.81638 23.6454 0.435005 23.3417 0.269724C22.8373 -0.00477583 22.9226 5.41818e-06 18.544 5.41818e-06H14.5295L14.3713 0.106599ZM2.14452 4.57444C1.60972 4.71825 1.07305 5.13839 0.788096 5.63649C0.496206 6.14668 0.500002 6.08935 0.500002 9.97078V13.5H1.99714H3.49424L3.52428 13.2773C3.64405 12.3895 4.22825 11.6578 5.03511 11.3851C5.45764 11.2423 6.07189 11.2426 6.47277 11.3857C7.31244 11.6855 7.85258 12.3654 7.97567 13.2773L8.00576 13.5H8.75286H9.5V12.2209C9.5 10.9876 9.5038 10.9343 9.60547 10.7326C9.68253 10.5798 9.76728 10.495 9.92009 10.418C10.1807 10.2865 10.3335 10.2853 10.6286 10.4123C11.1719 10.646 11.75 10.3119 11.75 9.76416C11.75 9.19158 11.1827 8.84935 10.6286 9.08771C10.3335 9.21469 10.1807 9.21347 9.92009 9.08203C9.76728 9.00497 9.68253 8.92022 9.60547 8.76741C9.50094 8.56013 9.5 8.54021 9.5 6.52913V4.5L5.94922 4.5031C2.99474 4.50568 2.35578 4.51763 2.14452 4.57444ZM5.39323 12.8393C5.03689 13.0566 4.91474 13.4693 5.0877 13.8714C5.21469 14.1665 5.21347 14.3193 5.08203 14.5799C5.00497 14.7327 4.92022 14.8175 4.76741 14.8945C4.56013 14.9991 4.5402 15 2.52913 15H0.500002V18.5292C0.500002 22.4107 0.496206 22.3533 0.788096 22.8635C0.971752 23.1846 1.31544 23.5282 1.63649 23.7119C2.14667 24.0038 2.08935 24 5.97078 24H9.5V22.5029V21.0058L9.27734 20.9733C8.60581 20.8754 8.0697 20.5661 7.69911 20.0626C7.13169 19.2919 7.13169 18.2081 7.69911 17.4374C8.0668 16.9379 8.63103 16.6115 9.27734 16.5243L9.5 16.4942V15.7471V15H8.22087C6.98755 15 6.93425 14.9962 6.73278 14.8945C6.49325 14.7736 6.31447 14.5027 6.31325 14.2587C6.31283 14.1732 6.35741 13.9989 6.4123 13.8714C6.58714 13.4649 6.48397 13.0995 6.12547 12.8555C5.92869 12.7215 5.59827 12.7142 5.39323 12.8393ZM11 16.2791C11 17.5124 10.9962 17.5658 10.8945 17.7674C10.8175 17.9202 10.7327 18.005 10.5799 18.082C10.3193 18.2135 10.1665 18.2147 9.87139 18.0877C9.32806 17.854 8.75 18.1881 8.75 18.7358C8.75 19.3084 9.31733 19.6507 9.87139 19.4123C10.1665 19.2853 10.3193 19.2865 10.5799 19.418C10.7327 19.495 10.8175 19.5798 10.8945 19.7326C10.9991 19.9399 11 19.9598 11 21.9709V24H14.5292C18.4107 24 18.3533 24.0038 18.8635 23.7119C19.1846 23.5282 19.5282 23.1846 19.7119 22.8635C20.0038 22.3533 20 22.4107 20 18.5292V15H18.5029H17.0058L16.9757 15.2227C16.8168 16.4 15.9421 17.2011 14.7969 17.2182C13.6167 17.2358 12.6856 16.4183 12.5243 15.2227L12.4942 15H11.7471H11V16.2791Z" fill="#7F56D9"/>
</svg>
