<svg width="163" height="47" viewBox="0 0 163 47" fill="none" xmlns="http://www.w3.org/2000/svg">
<g clip-path="url(#clip0_297_10145)">
<path d="M162.489 19.899C163.451 20.9188 163.935 22.3015 163.935 24.0533V33.2688H160.368V25.0981C160.368 24.0658 160.077 23.2524 159.494 22.6581C158.911 22.0637 158.123 21.7634 157.125 21.7634C155.946 21.7822 155.01 22.1889 154.321 22.9772C153.633 23.7655 153.286 24.779 153.286 26.0115V33.2688H149.744V12.7918H153.286V21.3192C154.284 19.386 156.039 18.4038 158.545 18.3662C160.207 18.3662 161.528 18.873 162.489 19.899ZM141.868 21.5382C140.689 21.5382 139.728 21.9449 138.996 22.7519C138.264 23.5653 137.892 24.6101 137.892 25.8989C137.892 27.2252 138.264 28.2888 138.996 29.1021C139.734 29.9092 140.689 30.3159 141.874 30.3159C143.617 30.3159 144.925 29.734 145.8 28.5766L148.008 30.4285C147.357 31.3857 146.463 32.149 145.422 32.637C144.349 33.15 143.108 33.4065 141.688 33.4065C140.255 33.4065 138.978 33.0937 137.861 32.468C136.764 31.8612 135.858 30.9415 135.263 29.8341C134.642 28.7017 134.332 27.4004 134.332 25.9302C134.332 24.4411 134.649 23.1211 135.275 21.9824C135.877 20.8625 136.788 19.9491 137.892 19.336C139.009 18.7103 140.292 18.3975 141.75 18.3975C143.077 18.3975 144.262 18.629 145.304 19.0982C146.346 19.5675 147.195 20.2369 147.853 21.1003L145.701 23.1711C144.702 22.0825 143.431 21.5382 141.868 21.5382ZM132.069 18.5039V33.2688H128.527V30.9227C128.025 31.711 127.324 32.3554 126.499 32.7871C125.674 33.2188 124.725 33.4378 123.652 33.4378C122.269 33.4378 121.06 33.1187 120.012 32.4868C118.97 31.8549 118.151 30.9603 117.574 29.8091C116.998 28.6579 116.706 27.3378 116.706 25.8488C116.706 24.3786 116.998 23.0773 117.581 21.9449C118.157 20.8125 118.976 19.9366 120.018 19.311C121.06 18.6853 122.263 18.3725 123.628 18.3725C124.701 18.3725 125.656 18.5915 126.487 19.0232C127.318 19.4548 128.025 20.093 128.527 20.8875V18.5164L132.069 18.5039ZM127.243 29.3336C127.988 28.6079 128.416 27.6444 128.527 26.4494V25.4046C128.416 24.2034 127.994 23.2462 127.25 22.5205C126.505 21.7947 125.563 21.4318 124.415 21.4318C123.2 21.4318 122.207 21.851 121.445 22.6894C120.682 23.5277 120.291 24.6101 120.272 25.9302C120.291 27.2565 120.682 28.3326 121.445 29.1709C122.207 30.0093 123.2 30.4285 124.415 30.4285C125.556 30.4285 126.499 30.0656 127.243 29.3336ZM113.14 20.4058C114.312 21.7509 114.895 23.6341 114.895 26.0615C114.895 26.537 114.883 26.8999 114.87 27.1376H104.11C104.346 28.1887 104.829 29.0083 105.567 29.6089C106.299 30.2095 107.205 30.5035 108.278 30.5035C109.009 30.5035 109.741 30.3596 110.417 30.0719C111.093 29.7966 111.701 29.3774 112.204 28.8456L114.108 30.8602C113.369 31.6797 112.464 32.3179 111.447 32.7371C110.405 33.1813 109.245 33.4002 107.974 33.4002C106.485 33.4002 105.17 33.0874 104.035 32.4618C102.925 31.8612 102.007 30.9415 101.406 29.8279C100.786 28.6955 100.482 27.3941 100.482 25.9239C100.482 24.4537 100.792 23.1461 101.424 22.0074C102.032 20.8875 102.944 19.9616 104.054 19.3422C105.183 18.7041 106.46 18.3913 107.893 18.3913C110.219 18.3913 111.968 19.067 113.14 20.4058ZM111.658 24.7415C111.621 23.6529 111.267 22.7895 110.597 22.1451C109.927 21.5007 109.034 21.1753 107.924 21.1753C106.888 21.1753 106.02 21.4944 105.319 22.1263C104.618 22.7582 104.191 23.6278 104.023 24.7352H111.658V24.7415ZM96.6302 19.1545C97.4737 18.6478 98.4598 18.385 99.5886 18.3662V21.8448C98.0815 21.7509 96.8783 22.1075 95.979 22.9083C95.0797 23.7092 94.627 24.7915 94.627 26.1491V33.2688H91.0856V18.5039H94.627V21.3443C95.1231 20.387 95.7868 19.655 96.6302 19.1545ZM88.4312 32.3554C87.2714 33.0749 86.0496 33.4315 84.7782 33.4315C83.5254 33.4315 82.4958 33.0561 81.702 32.3116C80.9019 31.5671 80.505 30.466 80.505 29.0145V15.0504L84.0215 14.625V19.1045H88.1893V21.7259H84.0215V28.3826C84.0215 29.0646 84.1456 29.5463 84.3999 29.8279C84.6541 30.1157 85.0325 30.2533 85.541 30.2533C86.0868 30.2533 86.7752 30.0531 87.6125 29.6464L88.4312 32.3554ZM73.9432 18.5039H77.4598V26.781C77.4598 31.6109 74.1293 33.4065 70.7492 33.4065C67.3691 33.4065 64.0448 31.6109 64.0448 26.781V18.5039H67.5614V26.9061C67.5614 28.758 68.9258 30.2595 70.7554 30.2595C72.585 30.2595 73.9495 28.758 73.9495 26.9061L73.9432 18.5039ZM56.7574 15.0003C58.2769 15.8324 59.5422 17.0649 60.4228 18.5602C61.3159 20.068 61.7563 21.7447 61.7563 23.584C61.7563 25.4234 61.3097 27.1001 60.4228 28.6204C59.5422 30.1282 58.2769 31.3732 56.7574 32.224C55.2007 33.1062 53.4828 33.5504 51.5912 33.5504C49.6996 33.5504 47.9816 33.1062 46.4311 32.224C44.9116 31.3732 43.6464 30.1282 42.7657 28.6204C41.8788 27.1001 41.4323 25.4234 41.4323 23.584C41.4323 21.7447 41.8788 20.068 42.7657 18.5602C43.6464 17.0587 44.9116 15.8324 46.4311 15.0003C47.9816 14.137 49.7058 13.7053 51.5912 13.7053C53.4828 13.699 55.2069 14.1307 56.7574 15.0003ZM48.4095 17.8845C47.4234 18.4476 46.6047 19.2672 46.0404 20.2557C45.4574 21.2629 45.1659 22.3703 45.1659 23.584C45.1659 24.7978 45.4636 25.9114 46.0528 26.9249C46.6233 27.9197 47.442 28.7455 48.4219 29.3274C49.4143 29.9154 50.4872 30.2095 51.6532 30.2095C52.7758 30.2158 53.8797 29.9092 54.841 29.3274C55.8147 28.7455 56.6148 27.9197 57.173 26.9249C57.7498 25.9051 58.0413 24.754 58.0289 23.584C58.0289 22.3703 57.7436 21.2629 57.173 20.2557C56.621 19.2734 55.8147 18.4538 54.841 17.8845C53.8735 17.3089 52.7758 17.0086 51.6532 17.0149C50.512 17.0086 49.3956 17.3089 48.4095 17.8845ZM14.745 5.42188C19.7624 5.42188 27.3413 6.9797 30.864 10.5521C31.7571 11.4592 32.9293 13.2298 32.9293 15.8324C32.9293 20.4496 29.2515 27.538 25.1954 31.6547C23.0991 33.7819 19.7624 36.5597 15.2721 36.5597C10.8811 36.5597 7.53201 33.5441 6.5645 32.5556C2.84328 28.7893 0.182617 23.071 0.182617 17.7469C0.182617 14.381 1.13153 11.4405 3.54411 8.99425C5.77684 6.73571 9.62829 5.42188 14.745 5.42188ZM20.9532 23.8468C22.6463 22.1326 23.1053 20.0179 23.1053 18.8542C23.1053 18.0096 22.8882 16.7771 21.8463 15.7198C20.2524 14.0994 18.4786 13.6427 16.556 13.6427C14.1186 13.6427 12.4812 14.4247 11.3897 15.5259C10.5338 16.4018 9.79575 17.7281 9.79575 19.6238C9.79575 21.5132 10.7943 23.34 11.8734 24.4411C12.8782 25.4547 14.4535 26.2054 16.035 26.2054C17.6227 26.2054 19.26 25.561 20.9532 23.8468Z" fill="#A05BF8"/>
</g>
<defs>
<clipPath id="clip0_297_10145">
<rect width="164.447" height="46.7067" fill="white" transform="translate(0.182617 0.111328)"/>
</clipPath>
</defs>
</svg>
