<svg width="155" height="47" viewBox="0 0 155 47" fill="none" xmlns="http://www.w3.org/2000/svg">
<g clip-path="url(#clip0_297_10147)">
<path d="M10.4073 14.561L9.10547 19.3524L16.5567 14.5338L11.6834 32.7158L16.6327 32.72L23.8318 5.86426" fill="#A05BF8"/>
<path d="M2.38769 25.077L0.337891 32.7208H10.4819L14.6328 17.1713L2.38769 25.077ZM37.6244 18.3474C37.3765 19.269 36.8987 19.9459 36.1863 20.3782C35.4754 20.8097 34.4778 21.0262 33.1901 21.0262H29.0987L30.5353 15.6703H34.6266C35.9127 15.6703 36.7962 15.8852 37.2756 16.3232C37.755 16.7613 37.8707 17.4308 37.6244 18.3565V18.3474ZM41.8604 18.2408C42.3811 16.3067 42.1662 14.8189 41.2141 13.7775C40.2635 12.7443 38.5956 12.2236 36.2152 12.2236H27.0845L21.588 32.7299H26.024L28.2392 24.4646H31.1485C31.8015 24.4646 32.3156 24.572 32.6909 24.7787C33.0669 24.9936 33.2876 25.3655 33.3554 25.9027L34.1472 32.7299H38.8998L38.1294 26.3656C37.9724 24.944 37.3219 24.1092 36.1788 23.8612C37.636 23.4397 38.8568 22.7371 39.8404 21.7618C40.8171 20.7936 41.5149 19.5802 41.8604 18.2491V18.2408ZM52.6434 25.3903C52.2714 26.7789 51.7011 27.8286 50.93 28.5642C50.158 29.2998 49.2356 29.6635 48.1594 29.6635C47.0634 29.6635 46.3204 29.3081 45.9278 28.589C45.5344 27.8699 45.5211 26.8285 45.8865 25.4647C46.2518 24.1009 46.8345 23.0347 47.6362 22.266C48.438 21.4973 49.3752 21.113 50.4514 21.113C51.5259 21.113 52.2615 21.4849 52.6334 22.223C53.0136 22.9644 53.0219 24.0249 52.65 25.4052L52.6434 25.3903ZM54.5874 18.1333L54.0319 20.2079C53.7922 19.4641 53.3269 18.869 52.6392 18.4226C51.9499 17.9846 51.0969 17.7614 50.0794 17.7614C48.8314 17.7614 47.6329 18.0837 46.484 18.7284C45.3352 19.3731 44.3268 20.2823 43.4672 21.456C42.6076 22.6297 41.9794 23.9604 41.5744 25.4564C41.1777 26.9607 41.095 28.2749 41.3347 29.4155C41.5827 30.5644 42.1034 31.4405 42.9051 32.0521C43.7152 32.672 44.7483 32.9779 46.0129 32.9779C47.0178 32.983 48.0113 32.7656 48.9223 32.3414C49.823 31.9352 50.6241 31.3372 51.2697 30.5892L50.6911 32.7514H54.9808L58.8977 18.1408H54.5998L54.5874 18.1333ZM74.3126 18.1333H61.8377L60.9657 21.3899H68.2243L58.6283 29.68L57.8084 32.7382H70.6857L71.5577 29.4816H63.7801L73.5232 21.0675L74.3126 18.1333ZM85.293 25.3655C84.9071 26.8037 84.3343 27.8848 83.578 28.589C82.8217 29.2998 81.9059 29.6552 80.8306 29.6552C78.5824 29.6552 77.8435 28.2253 78.6105 25.3655C78.9907 23.9439 79.566 22.8752 80.3347 22.1552C81.1033 21.4329 82.0349 21.0725 83.13 21.0725C84.2045 21.0725 84.9302 21.4304 85.3038 22.1511C85.6774 22.8702 85.6741 23.9422 85.293 25.3638V25.3655ZM87.8041 18.683C86.8163 18.068 85.5559 17.7606 84.0185 17.7606C82.4622 17.7606 81.0215 18.0664 79.6958 18.678C78.3755 19.2858 77.2152 20.1931 76.307 21.3279C75.373 22.4768 74.701 23.824 74.2886 25.3614C73.8836 26.8929 73.834 28.2377 74.1481 29.3891C74.4622 30.5379 75.1234 31.4223 76.1152 32.034C77.1153 32.6506 78.3882 32.9572 79.9503 32.9572C81.4877 32.9572 82.9176 32.6481 84.2318 32.0331C85.546 31.4149 86.67 30.5371 87.604 29.38C88.538 28.2278 89.2075 26.8838 89.6208 25.3465C90.034 23.8091 90.0836 22.4669 89.7695 21.313C89.4555 20.1641 88.8025 19.2797 87.8189 18.664L87.8041 18.683ZM103.118 22.0362L104.217 18.0606C103.845 17.8705 103.358 17.7713 102.746 17.7713C101.763 17.7713 100.82 18.0143 99.9111 18.5069C99.1292 18.9252 98.4647 19.5153 97.9026 20.2542L98.4729 18.1135L97.2273 18.1185H94.1692L90.2266 32.7233H94.5767L96.6223 25.0886C96.9199 23.9786 97.4555 23.1049 98.2283 22.485C98.9969 21.8627 99.9557 21.5511 101.113 21.5511C101.824 21.5511 102.485 21.7139 103.113 22.0387L103.118 22.0362ZM115.222 25.4358C114.85 26.7995 114.288 27.841 113.519 28.56C112.75 29.2824 111.825 29.6428 110.75 29.6428C109.676 29.6428 108.94 29.2791 108.552 28.5518C108.155 27.8203 108.147 26.7665 108.519 25.3812C108.891 23.9968 109.461 22.9347 110.246 22.1991C111.031 21.4577 111.957 21.0874 113.031 21.0874C114.089 21.0874 114.8 21.4676 115.18 22.2362C115.561 23.0049 115.569 24.0711 115.204 25.4349L115.222 25.4358ZM118.245 18.707C117.439 18.0623 116.41 17.7399 115.162 17.7399C114.069 17.7399 113.027 17.9879 112.038 18.4887C111.05 18.9888 110.249 19.6707 109.633 20.5336L109.648 20.4344L110.377 18.1118H106.129L105.046 22.1536L105.013 22.2941L100.55 38.9438H104.906L107.154 30.5627C107.377 31.3083 107.832 31.8935 108.526 32.3166C109.22 32.7382 110.077 32.9473 111.097 32.9473C112.361 32.9473 113.568 32.6415 114.713 32.0298C115.862 31.4165 116.853 30.5338 117.696 29.3932C118.539 28.2526 119.165 26.9301 119.564 25.4341C119.969 23.9356 120.052 22.5991 119.821 21.4296C119.585 20.2584 119.064 19.3516 118.258 18.7103L118.245 18.707ZM132.694 25.3762C132.322 26.7566 131.752 27.8145 130.983 28.5419C130.214 29.2742 129.289 29.6387 128.214 29.6387C127.115 29.6387 126.371 29.2833 125.982 28.5642C125.586 27.8451 125.577 26.8037 125.941 25.4399C126.305 24.0761 126.885 23.0099 127.687 22.2412C128.488 21.4725 129.427 21.089 130.503 21.089C131.577 21.089 132.305 21.461 132.685 22.1966C133.065 22.9347 133.067 23.9951 132.697 25.3787L132.694 25.3762ZM134.636 18.1152L134.08 20.1898C133.84 19.4417 133.377 18.8466 132.691 18.4044C131.997 17.9631 131.146 17.7432 130.129 17.7432C128.881 17.7432 127.676 18.0656 126.525 18.7103C125.377 19.355 124.368 20.2592 123.509 21.4296C122.649 22.5999 122.021 23.9339 121.616 25.43C121.215 26.9318 121.136 28.2484 121.376 29.394C121.618 30.5346 122.14 31.4157 122.947 32.0307C123.752 32.6423 124.79 32.9514 126.054 32.9514C127.071 32.9514 128.042 32.7398 128.964 32.315C129.862 31.9069 130.661 31.3081 131.305 30.5603L130.727 32.7241H135.016L138.933 18.1193H134.643L134.636 18.1152ZM156.942 18.1201L156.944 18.116H154.308C154.223 18.116 154.149 18.1201 154.072 18.1218H152.704L152.002 19.0971L151.828 19.3285L151.754 19.4442L146.195 27.1872L145.046 18.1201H140.494L142.8 31.8984L137.708 38.9487H142.246L143.478 37.2023C143.512 37.151 143.544 37.108 143.585 37.0535L145.023 35.012L145.065 34.9541L151.506 25.8209L156.936 18.1342L156.944 18.1292H156.942V18.1201Z" fill="#A05BF8"/>
</g>
<defs>
<clipPath id="clip0_297_10147">
<rect width="156.662" height="46.7067" fill="white" transform="translate(0.337891 0.111328)"/>
</clipPath>
</defs>
</svg>
