<svg width="128" height="48" viewBox="0 0 128 48" fill="none" xmlns="http://www.w3.org/2000/svg">
<g clip-path="url(#clip0_296_10087)">
<path d="M29.6506 11.885C29.6253 11.708 29.4736 11.6069 29.3472 11.6069C29.2208 11.6069 26.7181 11.5563 26.7181 11.5563C26.7181 11.5563 24.6199 9.53395 24.4177 9.30643C24.2154 9.10419 23.8109 9.15475 23.6593 9.20531C23.6593 9.20531 23.2548 9.33171 22.5975 9.53395C22.4964 9.18003 22.3194 8.75027 22.0919 8.29523C21.3588 6.87956 20.2465 6.12116 18.9319 6.12116C18.8308 6.12116 18.755 6.12116 18.6538 6.14644C18.6033 6.09588 18.578 6.04532 18.5274 6.02004C17.946 5.41333 17.2129 5.10997 16.3281 5.13525C14.6343 5.18581 12.9406 6.42452 11.5502 8.59859C10.5896 10.1407 9.85644 12.0619 9.62892 13.5534C7.68237 14.1602 6.31726 14.5899 6.2667 14.5899C5.28079 14.8933 5.25551 14.9186 5.12911 15.8539C5.07855 16.5618 2.5 36.5076 2.5 36.5076L24.1396 40.249L33.5184 37.9232C33.4931 37.9232 29.6759 12.0619 29.6506 11.885ZM21.5105 9.88787C21.0049 10.0395 20.4487 10.2165 19.842 10.4187C19.842 9.55923 19.7156 8.34579 19.3364 7.3346C20.6257 7.53684 21.2577 9.00307 21.5105 9.88787ZM18.7044 10.7474C17.5668 11.1013 16.3281 11.4805 15.0894 11.8597C15.4433 10.5199 16.1006 9.20531 16.9095 8.32051C17.2129 7.99187 17.6426 7.63796 18.123 7.43572C18.6286 8.42163 18.7297 9.81203 18.7044 10.7474ZM16.3787 6.27284C16.7831 6.27284 17.1118 6.34868 17.3898 6.55092C16.9348 6.77844 16.4798 7.13236 16.0753 7.5874C14.9883 8.75027 14.154 10.5451 13.8254 12.2895C12.7889 12.6181 11.7777 12.9215 10.8676 13.1995C11.4744 10.444 13.7748 6.34868 16.3787 6.27284Z" fill="#95BF47"/>
<path d="M29.3473 11.607C29.2209 11.607 26.7182 11.5565 26.7182 11.5565C26.7182 11.5565 24.62 9.53409 24.4177 9.30658C24.3419 9.23074 24.2408 9.18018 24.1396 9.18018V40.2491L33.5185 37.9234C33.5185 37.9234 29.7012 12.0621 29.6759 11.8851C29.6254 11.7082 29.4737 11.607 29.3473 11.607Z" fill="#5E8E3E"/>
<path d="M18.9318 16.4347L17.8447 20.5047C17.8447 20.5047 16.6313 19.9486 15.1904 20.0497C13.0668 20.1761 13.0668 21.5159 13.0668 21.8446C13.1932 23.6647 17.9711 24.0692 18.2492 28.3415C18.4515 31.7037 16.4796 34.0042 13.5977 34.1812C10.1597 34.3581 8.26367 32.3357 8.26367 32.3357L8.99679 29.2263C8.99679 29.2263 10.9181 30.6672 12.4349 30.5661C13.4208 30.5156 13.8 29.6813 13.7494 29.1252C13.5977 26.7489 9.70462 26.9005 9.45183 22.9822C9.24959 19.6958 11.3984 16.3841 16.151 16.0808C17.9964 15.9544 18.9318 16.4347 18.9318 16.4347Z" fill="white"/>
<path d="M46.2092 25.1062C45.1221 24.5248 44.566 24.0192 44.566 23.3366C44.566 22.4771 45.3496 21.9209 46.5631 21.9209C47.9788 21.9209 49.2427 22.5024 49.2427 22.5024L50.2287 19.4688C50.2287 19.4688 49.3186 18.7609 46.6389 18.7609C42.8975 18.7609 40.2937 20.9097 40.2937 23.918C40.2937 25.6371 41.5071 26.9263 43.125 27.8617C44.4396 28.5948 44.8946 29.1257 44.8946 29.9094C44.8946 30.7183 44.2373 31.3756 43.0239 31.3756C41.229 31.3756 39.51 30.4402 39.51 30.4402L38.4482 33.4738C38.4482 33.4738 40.0156 34.5356 42.67 34.5356C46.5125 34.5356 49.2933 32.6396 49.2933 29.2268C49.268 27.3814 47.8776 26.0668 46.2092 25.1062Z" fill="black"/>
<path d="M61.5288 18.7106C59.6329 18.7106 58.1413 19.6207 57.0038 20.9858L56.9532 20.9605L58.5964 12.3654H54.3241L50.1529 34.2577H54.4252L55.8409 26.7749C56.397 23.9435 57.8633 22.1992 59.2284 22.1992C60.189 22.1992 60.5682 22.8565 60.5682 23.7919C60.5682 24.3733 60.5177 25.1064 60.3913 25.6878L58.7733 34.2577H63.0456L64.7141 25.4098C64.8911 24.4744 65.0175 23.3621 65.0175 22.6037C65.0428 20.1768 63.7788 18.7106 61.5288 18.7106Z" fill="black"/>
<path d="M74.7246 18.7102C69.5675 18.7102 66.1547 23.3617 66.1547 28.5441C66.1547 31.8558 68.2024 34.5354 72.0449 34.5354C77.1009 34.5354 80.5137 30.0103 80.5137 24.7016C80.539 21.6427 78.7441 18.7102 74.7246 18.7102ZM72.6263 31.2743C71.1601 31.2743 70.5534 30.0356 70.5534 28.4683C70.5534 26.0161 71.8174 22.0219 74.1431 22.0219C75.6599 22.0219 76.1655 23.3364 76.1655 24.6004C76.1655 27.2295 74.8763 31.2743 72.6263 31.2743Z" fill="black"/>
<path d="M91.4857 18.7102C88.6038 18.7102 86.9606 21.2635 86.9606 21.2635H86.9101L87.1629 18.963H83.3709C83.1939 20.5051 82.84 22.8814 82.5114 24.651L79.5283 40.3245H83.8006L84.9888 33.9793H85.0899C85.0899 33.9793 85.9747 34.5354 87.5926 34.5354C92.6233 34.5354 95.9097 29.3783 95.9097 24.1707C95.9097 21.2888 94.6204 18.7102 91.4857 18.7102ZM87.3904 31.3249C86.2781 31.3249 85.6208 30.6929 85.6208 30.6929L86.3286 26.6987C86.8342 24.019 88.2246 22.2494 89.7161 22.2494C91.0307 22.2494 91.4352 23.4628 91.4352 24.6004C91.4352 27.3812 89.792 31.3249 87.3904 31.3249Z" fill="black"/>
<path d="M102.027 12.5675C100.662 12.5675 99.5745 13.6545 99.5745 15.0449C99.5745 16.3089 100.383 17.1937 101.597 17.1937H101.647C102.987 17.1937 104.125 16.2836 104.15 14.7163C104.15 13.4776 103.316 12.5675 102.027 12.5675Z" fill="black"/>
<path d="M96.0356 34.2322H100.308L103.215 19.0643H98.9175L96.0356 34.2322Z" fill="black"/>
<path d="M114.11 19.0393H111.127L111.279 18.3314C111.532 16.8652 112.391 15.5759 113.832 15.5759C114.591 15.5759 115.198 15.8034 115.198 15.8034L116.032 12.4412C116.032 12.4412 115.299 12.062 113.706 12.062C112.189 12.062 110.672 12.4918 109.51 13.4777C108.043 14.7164 107.361 16.5113 107.032 18.3314L106.906 19.0393H104.909L104.277 22.2751H106.274L103.999 34.2577H108.271L110.546 22.2751H113.504L114.11 19.0393Z" fill="black"/>
<path d="M124.424 19.0643C124.424 19.0643 121.745 25.814 120.557 29.5049H120.506C120.43 28.3167 119.444 19.0643 119.444 19.0643H114.944L117.523 32.9935C117.574 33.2969 117.548 33.4991 117.422 33.7013C116.916 34.662 116.082 35.5973 115.096 36.2799C114.287 36.8613 113.377 37.2405 112.669 37.4933L113.857 41.1336C114.717 40.9567 116.537 40.2235 118.054 38.8079C120 36.9877 121.821 34.1564 123.666 30.3138L128.899 19.0643H124.424Z" fill="black"/>
</g>
<defs>
<clipPath id="clip0_296_10087">
<rect width="127" height="48" fill="white" transform="translate(0.5 0.000976562)"/>
</clipPath>
</defs>
</svg>
