<svg width="121" height="48" viewBox="0 0 121 48" fill="none" xmlns="http://www.w3.org/2000/svg">
<g clip-path="url(#clip0_296_10092)">
<path d="M39.9253 32.4274L41.3934 28.996C43.0009 30.1864 45.0975 30.8165 47.1947 30.8165C48.7325 30.8165 49.7109 30.2215 49.7109 29.3112C49.6758 26.79 40.4496 28.7509 40.3794 22.4123C40.3443 19.1908 43.2104 16.7047 47.2649 16.7047C49.6758 16.7047 52.0878 17.3002 53.8 18.666L52.4281 22.1707C50.8527 21.1577 48.9069 20.4514 47.0549 20.4514C45.7968 20.4514 44.9577 21.0464 44.9577 21.8173C44.9928 24.3034 54.2897 22.9375 54.3945 28.996C54.3945 32.2876 51.5981 34.5988 47.6137 34.5988C44.6785 34.5988 41.9874 33.8986 39.9248 32.4274H39.9253ZM98.3833 27.7534C98.0128 28.4119 97.4737 28.9599 96.8215 29.3413C96.1692 29.7227 95.4273 29.9237 94.6717 29.9238C92.3169 29.9238 90.4082 28.011 90.4082 25.6517C90.4082 23.2924 92.3169 21.3797 94.6717 21.3797C95.4273 21.3798 96.1692 21.5808 96.8215 21.9622C97.4737 22.3436 98.0128 22.8916 98.3833 23.5501L102.465 21.2845C100.936 18.5522 98.0199 16.7047 94.6717 16.7047C89.74 16.7047 85.7422 20.7101 85.7422 25.6517C85.7422 30.5929 89.74 34.5988 94.6717 34.5988C98.0199 34.5988 100.936 32.7512 102.465 30.019L98.3833 27.7534ZM57.043 34.2484H62.1456V9.25684H57.0435L57.043 34.2484ZM105.042 9.25684V34.2484H110.144V26.761L116.191 34.2484H122.713L115.024 25.3535L122.153 17.0535H115.911L110.144 23.954V9.25684H105.042ZM77.8658 17.0545V19.0861C77.0272 17.6851 74.9651 16.7047 72.7983 16.7047C68.3248 16.7047 64.7951 20.6619 64.7951 25.6342C64.7951 30.6064 68.3248 34.5988 72.7983 34.5988C74.9651 34.5988 77.0272 33.6184 77.8658 32.2174V34.2484H82.9684V17.0545H77.8658ZM77.8658 27.788C77.132 29.0135 75.5942 29.9233 73.882 29.9233C71.5267 29.9233 69.618 28.011 69.618 25.6517C69.618 23.2924 71.5267 21.3797 73.882 21.3797C75.5942 21.3797 77.132 22.325 77.8658 23.5851V27.788Z" fill="black"/>
<path d="M12.978 8.70459C11.3245 8.70459 9.98417 10.0479 9.98417 11.7045C9.98378 12.098 10.0609 12.4878 10.2111 12.8516C10.3614 13.2153 10.5818 13.5459 10.8598 13.8245C11.1378 14.103 11.468 14.3241 11.8314 14.4751C12.1949 14.6261 12.5845 14.704 12.978 14.7044H15.9724V11.7045C15.9731 10.9096 15.658 10.147 15.0965 9.58445C14.5349 9.02188 13.7729 8.70539 12.978 8.70459ZM12.978 16.7043H4.99388C3.3403 16.7043 2 18.0476 2 19.7047C2 21.3613 3.3403 22.7046 4.99388 22.7046H12.9785C14.6316 22.7046 15.9724 21.3613 15.9724 19.7047C15.9724 18.0476 14.6316 16.7043 12.978 16.7043Z" fill="#36C5F0"/>
<path d="M31.9412 19.7047C31.9412 18.0476 30.6004 16.7043 28.9468 16.7043C27.2932 16.7043 25.9529 18.0476 25.9529 19.7047V22.7046H28.9468C29.7417 22.7038 30.5037 22.3873 31.0652 21.8247C31.6268 21.2621 31.9418 20.4996 31.9412 19.7047ZM23.957 19.7047V11.7045C23.9577 10.9096 23.6426 10.147 23.081 9.58445C22.5195 9.02188 21.7575 8.70539 20.9626 8.70459C19.3091 8.70459 17.9688 10.0479 17.9688 11.7045V19.7042C17.9688 21.3618 19.3091 22.7051 20.9626 22.7051C21.7575 22.7043 22.5195 22.3878 23.081 21.8252C23.6426 21.2626 23.9577 20.5001 23.957 19.7052" fill="#2EB67D"/>
<path d="M20.9626 38.7046C21.7575 38.7038 22.5195 38.3873 23.081 37.8247C23.6426 37.2621 23.9577 36.4996 23.957 35.7047C23.9577 34.9098 23.6426 34.1472 23.081 33.5847C22.5195 33.0221 21.7575 32.7056 20.9626 32.7048H17.9688V35.7047C17.9688 37.3613 19.3091 38.7046 20.9626 38.7046ZM20.9626 30.7049H28.9473C30.6004 30.7049 31.9412 29.3616 31.9412 27.7045C31.9418 26.9096 31.6268 26.147 31.0652 25.5845C30.5037 25.0219 29.7417 24.7054 28.9468 24.7046H20.9626C19.3091 24.7046 17.9688 26.0479 17.9688 27.7045C17.9684 28.098 18.0455 28.4878 18.1957 28.8516C18.346 29.2153 18.5664 29.5459 18.8444 29.8245C19.1224 30.103 19.4526 30.3241 19.816 30.4751C20.1794 30.6261 20.5691 30.704 20.9626 30.7044" fill="#ECB22E"/>
<path d="M2 27.7045C1.99961 28.098 2.07673 28.4878 2.22697 28.8516C2.37722 29.2153 2.59763 29.5459 2.87564 29.8245C3.15365 30.103 3.4838 30.3241 3.84725 30.4751C4.2107 30.6261 4.60032 30.704 4.99388 30.7044C5.78875 30.7036 6.55075 30.3871 7.11229 29.8245C7.67383 29.2619 7.98892 28.4994 7.98826 27.7045V24.7046H4.99388C3.3403 24.7046 2 26.0479 2 27.7045ZM9.98417 27.7045V35.7042C9.98417 37.3613 11.3245 38.7046 12.9781 38.7046C13.7729 38.7038 14.5349 38.3873 15.0965 37.8247C15.658 37.2621 15.9731 36.4996 15.9724 35.7047V27.7045C15.9728 27.3109 15.8957 26.9211 15.7454 26.5573C15.5951 26.1935 15.3747 25.8629 15.0966 25.5843C14.8186 25.3057 14.4883 25.0847 14.1248 24.9337C13.7613 24.7828 13.3716 24.7049 12.9781 24.7046C11.3245 24.7046 9.98417 26.0479 9.98417 27.7045Z" fill="#E01E5A"/>
</g>
<defs>
<clipPath id="clip0_296_10092">
<rect width="121" height="48" fill="white" transform="translate(0 0.000976562)"/>
</clipPath>
</defs>
</svg>
