<svg width="25" height="24" viewBox="0 0 25 24" fill="none" xmlns="http://www.w3.org/2000/svg">
<path fill-rule="evenodd" clip-rule="evenodd" d="M12.006 0.0500309C11.3677 0.19573 10.6806 0.714498 10.381 1.27698C10.0196 1.95529 10.0195 2.88944 10.3808 3.56849C10.6258 4.02905 11.1712 4.49748 11.7287 4.72621C11.8654 4.78231 11.8601 4.78508 11.5439 4.82373C11.1395 4.87317 10.5238 5.08211 10.1684 5.29048C10.0203 5.37731 9.70844 5.63835 9.4753 5.87055C9.1339 6.21055 9.00846 6.37614 8.83087 6.72125C8.51404 7.33698 8.42234 7.76793 8.42191 8.64297C8.42158 9.30172 8.42904 9.36261 8.52807 9.51079C8.75506 9.8506 8.55392 9.83423 12.4996 9.83428C15.9424 9.83437 16.0434 9.83184 16.2319 9.74055C16.5587 9.58237 16.6307 9.39356 16.6307 8.69457C16.6307 8.01955 16.5544 7.55647 16.3614 7.05928C15.896 5.86084 14.7405 4.96422 13.4809 4.82429L13.1872 4.79165L13.553 4.61095C14.7779 4.00606 15.2708 2.58434 14.681 1.35795C14.4949 0.97095 14.1095 0.544077 13.7655 0.343635C13.2435 0.0394763 12.5551 -0.075357 12.006 0.0500309ZM6.24031 4.9631C6.09508 5.04256 5.58424 5.55134 5.25851 5.94092C4.20802 7.19728 3.40504 8.81377 3.0467 10.3933C2.9131 10.9822 2.90832 11.1046 3.0103 11.3195C3.23546 11.794 3.93961 11.8452 4.22613 11.408C4.26924 11.3422 4.35523 11.072 4.41724 10.8076C4.59001 10.071 4.7919 9.49554 5.11623 8.81527C5.56496 7.87395 6.05122 7.15999 6.74566 6.42272C7.11277 6.03295 7.24886 5.80995 7.24886 5.59797C7.24886 5.41131 7.04823 5.08985 6.87316 4.99593C6.69369 4.89972 6.3854 4.88373 6.24031 4.9631ZM18.1431 5.0025C17.9325 5.13085 17.8038 5.35896 17.8036 5.60392C17.8033 5.86455 17.8505 5.95142 18.1774 6.29274C19.3646 7.53212 20.177 9.01346 20.5768 10.6678C20.7399 11.3428 20.832 11.5273 21.0597 11.6354C21.4801 11.8349 21.9734 11.6057 22.0743 11.1641C22.1521 10.8233 21.7728 9.44122 21.3232 8.42733C20.8409 7.3396 20.1225 6.2644 19.3066 5.4092C19.1138 5.20707 18.8983 5.01179 18.8277 4.97529C18.643 4.87979 18.3235 4.8925 18.1431 5.0025ZM4.07832 14.2196C3.21505 14.4074 2.48243 15.1154 2.25084 15.9856C2.17269 16.2793 2.1641 16.8505 2.23329 17.1509C2.38519 17.8099 2.95368 18.5082 3.5535 18.7724C3.72697 18.8487 3.86944 18.9241 3.87014 18.9398C3.87084 18.9555 3.7418 18.9818 3.58338 18.9984C3.22087 19.0363 2.59201 19.2511 2.2408 19.457C2.09271 19.5438 1.7795 19.8057 1.54467 20.0388C1.18408 20.3969 1.08379 20.5317 0.899201 20.9067C0.575575 21.564 0.493907 21.9457 0.494141 22.8005C0.494329 23.6234 0.539831 23.7535 0.881938 23.9088C1.07183 23.995 1.23057 23.9989 4.5954 23.9999C8.01582 24.0009 8.11574 23.9984 8.30431 23.9071C8.63024 23.7493 8.70309 23.5593 8.70266 22.8687C8.7021 21.9177 8.56644 21.3523 8.183 20.7029C7.92927 20.2733 7.3666 19.7094 6.94395 19.4613C6.55085 19.2305 5.99775 19.0385 5.60896 18.9979C5.45308 18.9816 5.32676 18.9555 5.32821 18.9398C5.32967 18.9241 5.48273 18.8389 5.6683 18.7506C6.45971 18.3737 7.01291 17.4845 7.01291 16.5893C7.01291 15.4763 6.18468 14.448 5.10371 14.2189C4.71872 14.1373 4.45561 14.1375 4.07832 14.2196ZM19.9378 14.2049C19.067 14.3698 18.2723 15.1438 18.0633 16.0307C17.8062 17.1214 18.3488 18.28 19.337 18.7506C19.5226 18.8389 19.6757 18.9271 19.6771 18.9465C19.6786 18.9658 19.6093 18.9816 19.5231 18.9816C19.0917 18.9816 18.2315 19.3131 17.7548 19.6631C17.3057 19.9927 16.8688 20.5363 16.6305 21.062C16.4002 21.5699 16.3434 21.8604 16.316 22.6705C16.2914 23.3988 16.2945 23.4348 16.3988 23.6204C16.47 23.747 16.5738 23.8455 16.701 23.9071C16.8896 23.9984 16.9895 24.0009 20.4099 23.9999C23.7748 23.9989 23.9335 23.995 24.1234 23.9088C24.2354 23.858 24.3643 23.7511 24.4193 23.6635C24.5106 23.5183 24.5156 23.4559 24.4976 22.6875C24.4758 21.7569 24.4173 21.5007 24.0742 20.8345C23.8461 20.3917 23.2007 19.7128 22.7645 19.457C22.4133 19.2511 21.7845 19.0363 21.422 18.9984C21.2635 18.9818 21.1345 18.9555 21.1352 18.9398C21.1359 18.9241 21.2784 18.8487 21.4518 18.7724C21.6825 18.6707 21.8563 18.5448 22.0992 18.3033C22.5971 17.808 22.8215 17.2755 22.8215 16.5893C22.8215 15.9172 22.5963 15.3717 22.1219 14.8952C21.5279 14.2984 20.7472 14.0517 19.9378 14.2049ZM9.24249 17.1289C8.59088 17.3594 8.63099 18.2651 9.30254 18.4844C10.2782 18.8032 11.2787 18.9514 12.4558 18.9514C13.6195 18.9515 14.3828 18.8484 15.4228 18.5508C15.8596 18.4259 15.9484 18.383 16.0862 18.2304C16.3025 17.9911 16.3445 17.7365 16.212 17.4687C16.0004 17.0413 15.7318 16.9831 14.9419 17.1935C13.9493 17.458 13.6058 17.5009 12.4792 17.5009C11.357 17.5009 11.0111 17.458 10.0306 17.1978C9.42727 17.0377 9.48576 17.0428 9.24249 17.1289Z" fill="#7F56D9"/>
</svg>
